<?xml version="1.0" encoding="UTF-8"?>
<svg id="Layer_2" data-name="Layer 2" xmlns="http://www.w3.org/2000/svg" xmlns:xlink="http://www.w3.org/1999/xlink" viewBox="0 0 137.92 137.73">
  <defs>
    <style>
      .cls-1 {
        fill: url(#linear-gradient);
      }

      .cls-1, .cls-2 {
        stroke-width: 0px;
      }

      .cls-2 {
        fill: url(#linear-gradient-2);
      }
    </style>
    <linearGradient id="linear-gradient" x1="53.61" y1="68.52" x2="85.02" y2="68.52" gradientUnits="userSpaceOnUse">
      <stop offset="0" stop-color="#ff4324"/>
      <stop offset=".18" stop-color="#fd561a"/>
      <stop offset=".52" stop-color="#fc760c"/>
      <stop offset=".8" stop-color="#fb8903"/>
      <stop offset="1" stop-color="#fb9100"/>
    </linearGradient>
    <linearGradient id="linear-gradient-2" x1="-2.17" y1="68.86" x2="139.21" y2="68.86" xlink:href="#linear-gradient"/>
  </defs>
  <g id="Layer_3" data-name="Layer 3">
    <g>
      <path class="cls-1" d="m68.39,53.22c-8.45,0-15.3,6.85-15.3,15.3s6.85,15.3,15.3,15.3,15.3-6.85,15.3-15.3-6.85-15.3-15.3-15.3Z"/>
      <path class="cls-2" d="m135.84,65.38h-.02l-27.38.2,7.52-7.52c.13-.13.24-.28.33-.43.97.62,2.13.98,3.37.98,2.75,0,5.09-1.77,5.96-4.23h3.08c.58.76,1.5,1.26,2.53,1.26,1.75,0,3.16-1.42,3.16-3.16s-1.42-3.16-3.16-3.16c-.87,0-1.65.35-2.22.91h-3.38c-.86-2.46-3.21-4.23-5.96-4.23-3.48,0-6.31,2.83-6.31,6.31,0,.83.16,1.62.45,2.34-.28.1-.55.26-.78.49l-10.5,10.5-7.54.05c-.57-5.35-2.72-10.23-5.97-14.16l6.15-5.61,2.81,2.81c.39.39.92.61,1.47.61s1.08-.22,1.47-.61l7.94-7.94c.81-.81.81-2.13,0-2.94l-3.84-3.84,5.11-5.11c.72.29,1.51.45,2.33.45,3.48,0,6.31-2.83,6.31-6.31s-2.83-6.31-6.31-6.31-6.31,2.83-6.31,6.31c0,1.14.3,2.2.83,3.13l-6.37,6.37c-.81.81-.81,2.13,0,2.94l3.84,3.84-5,5-2.74-2.74c-.79-.79-2.05-.82-2.87-.07l-7.71,7.03c-4.23-3.75-9.66-6.19-15.62-6.64v-6.83h2.63c.89,2.54,3.47,4.3,6.39,3.91,2.59-.35,4.69-2.44,5.03-5.04.39-2.92-1.36-5.49-3.91-6.39v-8.47l6.63-6.63c.76-.76.76-1.99,0-2.75-.76-.76-1.99-.76-2.75,0l-7.2,7.2c-.36.36-.57.86-.57,1.38v9.28c-1.69.59-3.03,1.59-3.62,3.28h-2.63V2.08c0-1.15-.93-2.08-2.08-2.08s-2.08.93-2.08,2.08v28.74h-6.47v-9.57c0-.55-.22-1.08-.61-1.47l-8.29-8.29c.66-.99,1.05-2.19,1.05-3.47,0-3.48-2.83-6.31-6.31-6.31s-6.31,2.83-6.31,6.31,2.83,6.31,6.31,6.31c.67,0,1.31-.11,1.92-.3l8.09,8.09v10.78c0,1.15.93,2.08,2.08,2.08h8.55v6.91c-5.9.45-11.27,2.83-15.47,6.51l-9.37-12.48c.62-.97.97-2.12.97-3.35,0-3.48-2.83-6.31-6.31-6.31-2.75,0-5.09,1.77-5.96,4.23h-8.36v-10.99c.69-.58,1.12-1.44,1.12-2.41,0-1.75-1.42-3.16-3.16-3.16s-3.16,1.42-3.16,3.16c0,.93.4,1.77,1.05,2.35v13.13c0,1.15.93,2.08,2.08,2.08h10.44c.86,2.46,3.2,4.23,5.96,4.23.73,0,1.44-.12,2.09-.36l9.67,12.89c-3.25,3.88-5.42,8.7-6.03,13.99l-9.13.06v-2.97c2.46-.86,4.23-3.21,4.23-5.96,0-3.48-2.83-6.31-6.31-6.31-2.75,0-5.09,1.77-5.96,4.23h-9.04l-6.95-6.95c.03-.18.05-.36.05-.55,0-1.75-1.42-3.16-3.16-3.16s-3.16,1.42-3.16,3.16,1.35,3.1,3.04,3.16c.05.07.11.14.17.2l7.68,7.68c.39.39.92.61,1.47.61h9.91c.63,1.81,2.07,3.24,3.88,3.88v3l-26.55.2c-1.15,0-2.07.94-2.06,2.09.01,1.14.94,2.06,2.08,2.06h.01l15.6-.11v9.32l-6.12,6.12c-1.03-.74-2.29-1.17-3.65-1.17-3.48,0-6.31,2.83-6.31,6.31s2.83,6.31,6.31,6.31c.71,0,1.39-.12,2.02-.33l4.88,4.88c.41.4.94.61,1.47.61s1.07-.2,1.47-.61c.81-.81.81-2.13,0-2.94l-4.53-4.53c.63-.98.99-2.14.99-3.39,0-.58-.08-1.15-.23-1.68l7.25-7.25c.39-.39.61-.92.61-1.47v-10.22l6.76-.05v4.91c-.66.58-1.07,1.43-1.07,2.37,0,1.75,1.42,3.16,3.16,3.16s3.16-1.42,3.16-3.16c0-.96-.43-1.82-1.1-2.4v-4.92l8.96-.06c.24,6.37,2.73,12.18,6.69,16.65l-4.5,4.5-6.01,6.01c-.84-.41-1.78-.64-2.77-.64-3.48,0-6.31,2.83-6.31,6.31,0,.99.23,1.94.64,2.77l-11.12,11.11c-.08,0-.16,0-.24,0-1.75,0-3.16,1.42-3.16,3.16s1.42,3.16,3.16,3.16,3.16-1.42,3.16-3.16c0-.06,0-.13,0-.19l11.15-11.15s0,0,0,0c.82.4,1.74.62,2.71.62,3.48,0,6.3-2.83,6.3-6.31,0-.97-.22-1.89-.61-2.71l4.55-4.55,4.55,4.55c.4.4.94.61,1.47.61s1.06-.2,1.47-.61c.81-.81.81-2.13,0-2.94l-4.55-4.55,3.08-3.08c4.12,3.42,9.29,5.62,14.94,6.05v13.16h-8c-.55,0-1.08.22-1.47.61l-10.27,10.27c-.39.39-.61.92-.61,1.47v3.4c-2.36.91-4.04,3.2-4.04,5.88,0,3.48,2.83,6.31,6.31,6.31s6.31-2.83,6.31-6.31c0-2.82-1.86-5.22-4.42-6.02v-2.4l9.06-9.06h7.14v23.19c0,1.15.93,2.08,2.08,2.08s2.08-.93,2.08-2.08v-5.82h7.38c.55,0,1.08-.22,1.47-.61l5.9-5.9,2.23,2.23c0,.08,0,.15,0,.23,0,1.75,1.41,3.16,3.16,3.16s3.16-1.42,3.16-3.16-1.42-3.16-3.16-3.16c-.07,0-.14,0-.2,0l-3.71-3.71c-.39-.39-.92-.61-1.47-.61s-1.08.22-1.47.61l-6.76,6.75h-6.52v-17.13h6.28c.58.64,1.42,1.05,2.35,1.05,1.75,0,3.16-1.41,3.16-3.16s-1.41-3.16-3.16-3.16c-.97,0-1.84.43-2.41,1.12h-6.22v-9.23c5.58-.43,10.69-2.59,14.79-5.93l.07.03,6.55,3.02v3.77c0,.55.22,1.08.61,1.47l4.95,4.95c-.34.77-.53,1.63-.53,2.53,0,3.48,2.83,6.31,6.31,6.31,1.13,0,2.19-.3,3.11-.82.02.03.05.06.08.08l8.62,8.62c0,.06,0,.12,0,.19,0,1.75,1.41,3.16,3.16,3.16s3.16-1.42,3.16-3.16-1.41-3.16-3.16-3.16c-.08,0-.16,0-.24,0l-8.6-8.59c-.09-.09-.18-.17-.29-.24.3-.74.47-1.54.47-2.39,0-3.48-2.83-6.31-6.31-6.31-1.06,0-2.06.26-2.94.73l-4.24-4.24v-4.24c0-.81-.47-1.55-1.21-1.89l-6.36-2.94c3.86-4.39,6.3-10.06,6.61-16.28l3.28-.02v7.81c0,.82.48,1.56,1.22,1.89l17.46,7.91c.17.08.36.13.54.16-.02.15-.02.31-.02.46,0,1.69.65,3.27,1.85,4.46,1.23,1.23,2.84,1.84,4.46,1.84.81,0,1.61-.16,2.37-.46.76-.31,1.47-.77,2.09-1.38,1.19-1.19,1.85-2.77,1.85-4.46s-.66-3.27-1.85-4.46c-2.46-2.46-6.46-2.46-8.92,0-.09.09-.18.19-.26.28-.12-.09-.25-.17-.39-.23l-16.24-7.36v-6.5l22.28-.17v5.79c0,1.15.93,2.08,2.08,2.08s2.08-.93,2.08-2.08v-5.82l6.88-.05c1.15,0,2.07-.94,2.06-2.09,0-1.15-.94-2.06-2.08-2.06Zm-16.18-15.26c1.2,0,2.17.97,2.17,2.17s-.97,2.17-2.17,2.17-2.17-.97-2.17-2.17.97-2.17,2.17-2.17Zm-7.22-29.27c1.2,0,2.17.97,2.17,2.17s-.97,2.17-2.17,2.17-2.17-.97-2.17-2.17.97-2.17,2.17-2.17Zm-33.76,10.1c1.19,0,2.16.97,2.16,2.16s-.97,2.16-2.16,2.16-2.16-.97-2.16-2.16.97-2.16,2.16-2.16ZM45.69,10.18c-1.2,0-2.17-.97-2.17-2.17s.97-2.17,2.17-2.17,2.17.97,2.17,2.17-.97,2.17-2.17,2.17Zm-9.54,24.57c-1.2,0-2.17-.97-2.17-2.17s.97-2.17,2.17-2.17,2.17.97,2.17,2.17-.97,2.17-2.17,2.17ZM7.91,92.5c-1.2,0-2.17-.97-2.17-2.17s.97-2.17,2.17-2.17,2.17.97,2.17,2.17-.97,2.17-2.17,2.17Zm22.79-33.82c-1.2,0-2.17-.97-2.17-2.17s.97-2.17,2.17-2.17,2.17.97,2.17,2.17-.97,2.17-2.17,2.17Zm4.45,45.86c-1.2,0-2.17-.97-2.17-2.17s.97-2.17,2.17-2.17,2.17.97,2.17,2.17-.97,2.17-2.17,2.17Zm15.28,25.39c0,1.2-.97,2.17-2.17,2.17s-2.17-.97-2.17-2.17.97-2.17,2.17-2.17,2.17.97,2.17,2.17Zm52.81-27.1c1.2,0,2.17.97,2.17,2.17s-.97,2.17-2.17,2.17-2.17-.97-2.17-2.17.97-2.17,2.17-2.17Zm-34.84-13.55c-11.46,0-20.76-9.29-20.76-20.76s9.29-20.76,20.76-20.76,20.76,9.29,20.76,20.76-9.29,20.76-20.76,20.76Zm55.48-3.38c1.2,0,2.17.97,2.17,2.17s-.97,2.17-2.17,2.17-2.17-.97-2.17-2.17.97-2.17,2.17-2.17Z"/>
    </g>
  </g>
</svg>