<?xml version="1.0" encoding="UTF-8"?>
<svg id="Layer_2" data-name="Layer 2" xmlns="http://www.w3.org/2000/svg" viewBox="0 0 53.49 53.55">
  <defs>
    <style>
      .cls-1 {
        fill: #ff5f0a;
        stroke-width: 0px;
      }
    </style>
  </defs>
  <g id="Layer_1-2" data-name="Layer 1">
    <g id="GyctEW.tif">
      <g>
        <path class="cls-1" d="m20.07,0c4.46,0,8.92,0,13.38,0,.07.01.14.03.2.03.96.03,1.92.04,2.87.08,1.64.06,3.27.14,4.88.47,2.16.44,4.2,1.2,5.99,2.52,3.35,2.46,5.1,5.86,5.7,9.9.28,1.86.35,3.73.36,5.6.03,5.44.03,10.89,0,16.33-.01,2.08-.08,4.16-.46,6.22-.4,2.15-1.11,4.19-2.38,5.99-2.46,3.52-5.93,5.35-10.1,5.97-1.8.27-3.61.33-5.42.35-6.45.08-12.91.16-19.36-.1-1.54-.06-3.07-.25-4.57-.62-3.45-.86-6.25-2.69-8.28-5.62-1.64-2.36-2.4-5.05-2.62-7.88-.14-1.82-.16-3.65-.24-5.48,0-.1-.02-.2-.03-.31,0-4.46,0-8.92,0-13.38.01-.09.03-.19.03-.28.03-.96.04-1.92.08-2.87.06-1.86.19-3.72.62-5.54.82-3.42,2.57-6.24,5.44-8.32C8.58,1.31,11.34.51,14.26.28c1.81-.15,3.64-.16,5.45-.24.12,0,.24-.02.36-.03ZM4.76,28.07c.05,2.43.12,6.15.22,9.88.04,1.41.27,2.81.72,4.15.83,2.45,2.4,4.25,4.75,5.34,1.6.74,3.3,1.03,5.04,1.11,2.04.09,4.09.17,6.14.16,5.1,0,10.19-.05,15.29-.11,1.59-.02,3.16-.18,4.7-.62,2.16-.62,3.9-1.82,5.16-3.69,1.03-1.54,1.52-3.29,1.67-5.11.15-1.78.25-3.57.26-5.35.02-5.33,0-10.66-.04-16-.01-1.53-.08-3.07-.35-4.58-.27-1.45-.71-2.84-1.54-4.07-1.44-2.12-3.48-3.33-5.95-3.87-1.68-.37-3.39-.45-5.09-.46-5.97-.03-11.93-.02-17.9,0-1.52,0-3.05.08-4.55.35-1.51.28-2.95.75-4.22,1.65-2.03,1.44-3.19,3.45-3.71,5.86-.37,1.73-.43,3.49-.46,5.25-.06,2.93-.07,5.85-.11,10.08Z"/>
        <path class="cls-1" d="m26.75,40.51c-7.57,0-13.73-6.17-13.72-13.74,0-7.58,6.17-13.75,13.76-13.74,7.57,0,13.73,6.17,13.72,13.74,0,7.58-6.17,13.74-13.75,13.74Zm-8.93-13.75c0,4.94,3.99,8.94,8.93,8.95,4.94,0,8.95-3.99,8.96-8.92,0-4.96-3.99-8.96-8.94-8.97-4.94,0-8.94,4-8.94,8.93Z"/>
        <path class="cls-1" d="m41.02,15.71c-1.77,0-3.2-1.43-3.2-3.21,0-1.77,1.43-3.2,3.21-3.2,1.77,0,3.2,1.43,3.2,3.2,0,1.77-1.43,3.2-3.2,3.2Z"/>
      </g>
    </g>
  </g>
</svg>