<?xml version="1.0" encoding="UTF-8"?>
<svg id="Layer_2" data-name="Layer 2" xmlns="http://www.w3.org/2000/svg" viewBox="0 0 118.8 134.5">
  <defs>
    <style>
      .cls-1 {
        fill: #ff6e00;
      }

      .cls-1, .cls-2 {
        stroke-width: 0px;
      }

      .cls-2 {
        fill: #ff3b10;
      }
    </style>
  </defs>
  <g id="Layer_1-2" data-name="Layer 1">
    <g>
      <path class="cls-1" d="m63.66,74.61h0c-2.64,1.52-5.88,1.52-8.52,0h0S1.89,43.87,1.89,43.87c-.84-.48-1.89.12-1.89,1.09v55.02c0,.96.51,1.84,1.34,2.32l53.8,31.06c2.64,1.52,5.88,1.52,8.52,0l53.8-31.06c.83-.48,1.34-1.36,1.34-2.32v-55.02c0-.97-1.05-1.57-1.89-1.09l-53.25,30.74Z"/>
      <path class="cls-2" d="m2.47,34.37c-1.03-.6-1.03-2.09,0-2.68L55.58,1.02c1.16-.67,2.48-1.02,3.82-1.02s2.66.35,3.82,1.03l53.1,30.66c1.03.6,1.03,2.09,0,2.68l-52.67,30.41c-2.64,1.52-5.88,1.52-8.52,0L2.47,34.37Z"/>
    </g>
  </g>
</svg>