<svg width="137" height="97" viewBox="0 0 137 97" fill="none" xmlns="http://www.w3.org/2000/svg">
<path d="M68.5 97H111.017C125.367 97 137 85.3485 137 70.9756V39.7463C137 25.3735 125.367 13.722 111.017 13.722H103.931C103.931 6.14353 97.7973 0 90.231 0H68.5V97Z" fill="#FF6E00"/>
<path d="M68.5 0H46.769C39.2027 0 33.069 6.14353 33.069 13.722H25.9828C11.6329 13.722 0 25.3735 0 39.7463V70.9756C0 85.3485 11.6329 97 25.9828 97H68.5V0Z" fill="#FF3B10"/>
<path fill-rule="evenodd" clip-rule="evenodd" d="M68.7362 90.3756C87.9129 90.3756 103.459 74.8049 103.459 55.5976C103.459 36.3902 87.9129 20.8195 68.7362 20.8195C49.5595 20.8195 34.0138 36.3902 34.0138 55.5976C34.0138 74.8049 49.5595 90.3756 68.7362 90.3756ZM68.5 83.7512C84.1544 83.7512 96.8448 71.0405 96.8448 55.361C96.8448 39.6815 84.1544 26.9707 68.5 26.9707C52.8456 26.9707 40.1552 39.6815 40.1552 55.361C40.1552 71.0405 52.8456 83.7512 68.5 83.7512Z" fill="white"/>
<path d="M89.7586 55.5976C89.7586 67.2265 80.3466 76.6537 68.7362 76.6537C57.1258 76.6537 47.7138 67.2265 47.7138 55.5976C47.7138 43.9686 57.1258 34.5415 68.7362 34.5415C80.3466 34.5415 89.7586 43.9686 89.7586 55.5976Z" fill="white"/>
</svg>
