<?xml version="1.0" encoding="UTF-8"?>
<svg id="Layer_2" data-name="Layer 2" xmlns="http://www.w3.org/2000/svg" viewBox="0 0 82.63 146.69">
  <defs>
    <style>
      .cls-1 {
        fill: #ff6e00;
      }

      .cls-1, .cls-2 {
        stroke-width: 0px;
      }

      .cls-2 {
        fill: #ff3b10;
      }
    </style>
  </defs>
  <g id="Layer_1-2" data-name="Layer 1">
    <g>
      <path class="cls-1" d="m13.66,29.74V11.25c0-.65.37-1.24.95-1.53L34.05.18c1.13-.55,2.45.27,2.45,1.53v28.04H13.66Z"/>
      <rect class="cls-2" y="38.31" width="69.14" height="19.17" rx="1.7" ry="1.7"/>
      <path class="cls-2" d="m82.44,128.88l-6.91-13.15c-.52-.99-1.83-1.22-2.65-.45-5.22,4.9-12.13,6.74-14.35,6.74-2.81,0-4.91-.36-6.66-1.12,0,0,0,0,.01,0-.28-.12-.55-.27-.82-.42,0,0,0,0,0,0v26.08c.26.02.53.04.8.06h0c.7.04,1.41.07,2.12.07-.07,0-.14,0-.21,0,.09,0,.18,0,.28,0,9.32,0,18.06-5.4,28.1-15.82.51-.53.63-1.34.29-1.99Z"/>
      <path class="cls-1" d="m13.66,66.05v43.11c0,11.01,5.3,24.06,12.85,30.18,5.75,4.88,11.21,6.76,17.01,7.21v-26.08c-.55-.3-1.09-.62-1.59-1.02-.09-.07-.17-.14-.24-.22-3.2-3.27-5.19-8.52-5.19-14.57v-38.62H13.66Z"/>
    </g>
  </g>
</svg>