<?xml version="1.0" encoding="UTF-8"?>
<svg id="Layer_2" data-name="Layer 2" xmlns="http://www.w3.org/2000/svg" viewBox="0 0 78.65 54.4">
  <defs>
    <style>
      .cls-1 {
        fill: #ff5f0a;
        stroke-width: 0px;
      }
    </style>
  </defs>
  <g id="Layer_1-2" data-name="Layer 1">
    <g id="fdX3TC">
      <path class="cls-1" d="m39.33,54.39c-7.75,0-15.49.02-23.24,0-8.26-.03-15.28-6.39-15.96-14.62-.25-3-.07-6.04-.07-9.06,0-4.85,0-9.7,0-14.54C.07,7.17,7.19.03,16.21.02,31.63,0,47.05,0,62.47.01c8.19,0,15.09,6.03,16.01,14.13.31,2.7.12,5.45.12,8.18.01,5.12-.12,10.23.03,15.35.25,8.38-5.73,15.24-13.67,16.5-.86.14-1.74.2-2.62.21-7.67.02-15.35,0-23.02,0h0Zm-10.8-27.2h0c0,3.34,0,6.67,0,10.01,0,1.12.54,1.45,1.54.99,5.76-2.68,11.51-5.36,17.27-8.05,1.28-.6,2.57-1.17,3.82-1.81.27-.14.55-.53.57-.82.02-.25-.3-.56-.54-.77-.21-.19-.51-.28-.77-.41-6.76-3.35-13.51-6.71-20.27-10.06-1.08-.54-1.63-.21-1.63.99,0,3.31,0,6.63,0,9.94Z"/>
    </g>
  </g>
</svg>