<svg width="127" height="72" viewBox="0 0 127 72" fill="none" xmlns="http://www.w3.org/2000/svg">
<path d="M126.117 33.6895L123.844 31.1411C122.708 29.8669 95.5465 0 63.4318 0C31.3171 0 4.27485 29.8839 3.13819 31.1581L0.881845 33.6895C-0.28874 34.9976 -0.28874 36.9854 0.881845 38.3105L3.13819 40.8419C4.27485 42.1161 31.2831 72 63.4148 72C95.5466 72 122.691 42.1331 123.827 40.8589L126.101 38.3105C127.288 36.9854 127.288 34.9976 126.101 33.6725L126.117 33.6895ZM63.4827 65.2043C47.3829 65.2043 34.3199 52.1227 34.3199 36C34.3199 19.8773 47.3829 6.79566 63.4827 6.79566C79.5825 6.79566 92.6455 19.8773 92.6455 36C92.6455 52.1227 79.5825 65.2043 63.4827 65.2043Z" fill="#FF6E00"/>
<path d="M63.4832 16.8533C61.9733 16.8533 60.4974 17.0402 59.0893 17.3799C63.6698 18.824 66.978 23.1223 66.978 28.185C66.978 34.437 61.9055 39.5168 55.6623 39.5168C50.6068 39.5168 46.3316 36.1869 44.8726 31.6168C44.5333 33.0269 44.3467 34.505 44.3467 36.017C44.3467 46.6013 52.914 55.1638 63.4662 55.1638C74.0185 55.1638 82.5858 46.5843 82.5858 36.017C82.5858 25.4498 74.0185 16.8703 63.4662 16.8703L63.4832 16.8533Z" fill="#FF3B10"/>
</svg>
