<?xml version="1.0" encoding="UTF-8"?>
<svg id="Layer_2" data-name="Layer 2" xmlns="http://www.w3.org/2000/svg" viewBox="0 0 98.95 153.7">
  <defs>
    <style>
      .cls-1 {
        fill: #ff6e00;
      }

      .cls-1, .cls-2 {
        stroke-width: 0px;
      }

      .cls-2 {
        fill: #ff3b10;
      }
    </style>
  </defs>
  <g id="Layer_1-2" data-name="Layer 1">
    <g>
      <path class="cls-1" d="m45.92,80.1c-9.76-.48-17.52-7.7-17.52-16.56,0-7.27,5.23-13.44,12.49-15.69V1.09C40.89.49,40.35,0,39.68,0h-1.16C38.05,0,37.62.24,37.42.62L.56,69.31c-.7,1.3-.75,2.81-.13,4.14l22.86,49.65c.88,1.9,2.95,3.14,5.24,3.14h17.39v-46.15Z"/>
      <path class="cls-2" d="m53.03,80.1c9.76-.48,17.52-7.7,17.52-16.56,0-7.27-5.23-13.44-12.49-15.69V1.09c0-.6.54-1.09,1.21-1.09h1.16c.47,0,.89.24,1.09.62l36.86,68.7c.7,1.3.75,2.81.13,4.14l-22.86,49.65c-.88,1.9-2.95,3.14-5.24,3.14h-17.39v-46.15Z"/>
      <path class="cls-1" d="m17.12,153.7c-1.68,0-3.05-1.48-3.05-3.31v-12.4c0-1.83,1.37-3.31,3.05-3.31h28.8v19.01h-28.8Z"/>
      <path class="cls-2" d="m81.83,134.69h-28.8v19.01h28.8c1.68,0,3.05-1.48,3.05-3.31v-12.4c0-1.83-1.37-3.31-3.05-3.31Z"/>
    </g>
  </g>
</svg>