<?xml version="1.0" encoding="UTF-8"?>
<svg id="Layer_2" data-name="Layer 2" xmlns="http://www.w3.org/2000/svg" viewBox="0 0 107.84 164.11">
  <defs>
    <style>
      .cls-1 {
        fill: #ff6e00;
      }

      .cls-1, .cls-2 {
        stroke-width: 0px;
      }

      .cls-2 {
        fill: #ff3b10;
      }
    </style>
  </defs>
  <g id="Layer_1-2" data-name="Layer 1">
    <g>
      <path class="cls-2" d="m87.8,109.3c-.09.48-.33.94-.72,1.31l-31.42,29.23c-.49.46-.77,1.09-.77,1.76v20.09c0,2.1,2.5,3.19,4.04,1.77l48.14-44.37c.49-.46.78-1.1.78-1.77v-8.03h-20.04Z"/>
      <path class="cls-2" d="m107.03,90.31l-48.14-42.63c-1.55-1.38-4.01-.27-4.01,1.8v20.05c0,.68.29,1.34.8,1.79,10.53,9.39,20.9,18.91,31.35,28.3.65.59.91,1.45.75,2.24h20.04v-9.77c0-.69-.3-1.35-.81-1.8Z"/>
      <path class="cls-1" d="m20.79,63.53c-.39-.36-.64-.82-.73-1.3h0s-20.06,0-20.06,0v8.03c0,.67.28,1.32.78,1.77l48.14,44.37c1.54,1.42,4.04.33,4.04-1.77v-20.09c0-.67-.28-1.31-.77-1.76-10.46-9.71-20.85-19.54-31.4-29.24Z"/>
      <path class="cls-1" d="m20.06,54.81c-.16-.8.09-1.66.75-2.25l31.36-28.29c.51-.46.8-1.11.8-1.79V2.41c0-2.08-2.45-3.18-4.01-1.8L.81,43.24c-.52.46-.81,1.11-.81,1.8v9.77h20.06Z"/>
    </g>
  </g>
</svg>