<?xml version="1.0" encoding="UTF-8"?>
<svg id="Layer_1" data-name="Layer 1" xmlns="http://www.w3.org/2000/svg" width="362.11" height="362.11" xmlns:xlink="http://www.w3.org/1999/xlink" viewBox="0 0 362.11 362.11">
  <defs>
    <style>
      .cls-1 {
        fill: url(#Sun_2-2);
      }

      .cls-1, .cls-2 {
        stroke-width: 0px;
      }

      .cls-2 {
        fill: url(#Sun_2);
      }
    </style>
    <linearGradient id="Sun_2" data-name="Sun 2" x1="179.57" y1="220.02" x2="179.57" y2="139.67" gradientUnits="userSpaceOnUse">
      <stop offset="0" stop-color="#ff4324"/>
      <stop offset="1" stop-color="#fb9100"/>
    </linearGradient>
    <linearGradient id="Sun_2-2" data-name="Sun 2" x1="181.05" y1="363.12" x2="181.05" y2="1.01" xlink:href="#Sun_2"/>
  </defs>
  <path class="cls-2" d="M179.57,139.92c-22.19,0-40.17,18.01-40.17,40.23s17.99,40.23,40.17,40.23,40.17-18.01,40.17-40.23-17.99-40.23-40.17-40.23Z"/>
  <path class="cls-1" d="M356.65,172.11h-71.93l19.75-19.45c.35-.35.64-.74.86-1.14,2.56,1.63,5.6,2.57,8.84,2.57,7.21,0,13.38-4.65,15.64-11.12h8.08c1.53,2.01,3.93,3.31,6.64,3.31,4.58,0,8.3-3.73,8.3-8.32s-3.72-8.32-8.3-8.32c-2.27,0-4.33.91-5.83,2.39h-8.88c-2.26-6.47-8.42-11.12-15.64-11.12-9.13,0-16.56,7.44-16.56,16.58,0,2.18.42,4.25,1.18,6.15-.74.26-1.45.69-2.04,1.28l-27.57,27.17h-19.79c-1.49-14.06-7.13-26.31-15.68-36.66l16.14-14.75,7.38,7.38c1.02,1.02,2.41,1.6,3.86,1.6s2.83-.58,3.85-1.6l20.85-20.88c2.13-2.13,2.13-5.59,0-7.72l-10.07-10.1,13.41-13.43c1.9.77,3.96,1.18,6.12,1.18,9.14,0,16.56-7.43,16.56-16.58s-7.42-16.58-16.56-16.58-16.56,7.44-16.56,16.58c0,2.99.79,5.79,2.18,8.22l-16.73,16.75c-2.13,2.14-2.13,5.59,0,7.73l10.07,10.09-13.12,13.15-7.2-7.2c-2.06-2.07-5.38-2.15-7.54-.18l-20.23,18.49c-11.1-9.87-25.35-16.27-41.01-17.47v-17.96h6.9c2.34,6.68,9.11,11.3,16.77,10.27,6.81-.92,12.3-6.42,13.22-13.24,1.03-7.67-3.58-14.45-10.25-16.79v-22.28l17.39-17.42c2-2,2-5.24,0-7.24-1.99-2-5.23-2-7.23,0l-18.89,18.92c-.96.96-1.5,2.26-1.5,3.62v24.4c-4.44,1.56-7.96,4.17-9.51,8.62h-6.9V5.47c0-3.01-2.44-5.47-5.46-5.47s-5.46,2.45-5.46,5.47v75.56h-17v-25.15c0-1.45-.58-2.84-1.6-3.87l-21.77-21.8c1.74-2.61,2.75-5.75,2.75-9.13,0-9.14-7.43-16.58-16.56-16.58s-16.56,7.44-16.56,16.58,7.43,16.58,16.56,16.58c1.76,0,3.44-.28,5.03-.79l21.23,21.26v28.35c0,3.02,2.44,5.47,5.46,5.47h22.45v18.18c-15.48,1.19-29.58,7.45-40.62,17.12l-24.59-32.82c1.62-2.55,2.55-5.57,2.55-8.81,0-9.14-7.43-16.58-16.56-16.58-7.22,0-13.38,4.65-15.64,11.12h-21.95v-28.88c1.81-1.52,2.95-3.8,2.95-6.35,0-4.59-3.72-8.32-8.3-8.32s-8.31,3.73-8.31,8.32c0,2.45,1.06,4.66,2.75,6.19v34.51c0,3.02,2.44,5.47,5.46,5.47h27.41c2.26,6.47,8.41,11.12,15.64,11.12,1.93,0,3.77-.33,5.49-.93l25.38,33.89c-8.53,10.2-14.22,23.05-15.84,36.94h-23.96v-7.82c6.46-2.27,11.1-8.44,11.1-15.66,0-9.14-7.43-16.58-16.56-16.58-7.22,0-13.38,4.65-15.64,11.12h-23.74l-18.25-18.27c.09-.47.13-.94.13-1.44,0-4.59-3.72-8.32-8.31-8.32s-8.3,3.73-8.3,8.32,3.54,8.14,7.98,8.31c.13.19.29.37.46.54l20.17,20.2c1.02,1.02,2.41,1.6,3.86,1.6h26.01c1.67,4.76,5.43,8.53,10.18,10.19v7.82H5.42c-3.02.02-5.44,2.48-5.42,5.5.03,3,2.46,5.43,5.46,5.43h41.01v24.81l-16.07,16.1c-2.71-1.94-6.01-3.07-9.6-3.07-9.13,0-16.56,7.44-16.56,16.58s7.43,16.58,16.56,16.58c1.86,0,3.64-.31,5.31-.87l12.82,12.84c1.07,1.06,2.46,1.6,3.86,1.6s2.8-.54,3.86-1.6c2.13-2.14,2.13-5.59,0-7.73l-11.89-11.9c1.65-2.57,2.6-5.63,2.6-8.91,0-1.53-.21-3.02-.61-4.42l19.03-19.06c1.02-1.02,1.6-2.41,1.6-3.87v-27.08h17.74v12.99c-1.73,1.53-2.81,3.76-2.81,6.24,0,4.59,3.72,8.32,8.3,8.32s8.31-3.73,8.31-8.32c0-2.52-1.12-4.78-2.89-6.3v-12.93h23.54c.63,16.74,7.16,31.85,17.55,43.6l-11.82,11.83-15.77,15.79c-2.2-1.08-4.66-1.69-7.27-1.69-9.14,0-16.57,7.43-16.57,16.58,0,2.61.61,5.09,1.69,7.29l-29.19,29.22c-.21-.01-.42-.02-.63-.02-4.58,0-8.3,3.73-8.3,8.32s3.72,8.32,8.3,8.32,8.31-3.73,8.31-8.32c0-.17-.01-.34-.02-.51l29.28-29.32s0,0,0-.02c2.15,1.04,4.57,1.62,7.13,1.62,9.13,0,16.55-7.44,16.55-16.58,0-2.54-.58-4.97-1.61-7.12l11.96-11.97,11.96,11.97c1.06,1.06,2.46,1.6,3.86,1.6s2.79-.54,3.85-1.6c2.13-2.14,2.13-5.59,0-7.73l-11.95-11.96,8.08-8.1c10.83,8.98,24.39,14.78,39.22,15.92v34.59h-21.02c-1.45,0-2.84.58-3.86,1.61l-26.97,27.01c-1.02,1.02-1.6,2.41-1.6,3.87v8.93c-6.2,2.39-10.61,8.43-10.61,15.47,0,9.14,7.43,16.58,16.56,16.58s16.56-7.44,16.56-16.58c0-7.41-4.88-13.71-11.6-15.83v-6.31l23.77-23.82h18.75v60.97c0,3.02,2.44,5.47,5.46,5.47s5.46-2.44,5.46-5.47v-15.3h19.37c1.45,0,2.84-.58,3.86-1.6l15.48-15.5,5.85,5.87c-.01.2-.02.41-.02.61,0,4.59,3.71,8.32,8.31,8.32s8.3-3.73,8.3-8.32-3.72-8.32-8.3-8.32c-.18,0-.36,0-.53.02l-9.75-9.77c-1.02-1.02-2.41-1.6-3.86-1.6s-2.84.58-3.86,1.6l-17.74,17.76h-17.11v-45.05h16.48c1.53,1.69,3.73,2.75,6.18,2.75,4.59,0,8.31-3.72,8.31-8.32s-3.71-8.32-8.31-8.32c-2.54,0-4.82,1.14-6.34,2.95h-16.32v-24.27c14.66-1.12,28.07-6.8,38.83-15.6l.18.09,17.19,7.95v9.91c0,1.45.58,2.84,1.6,3.87l13,13.02c-.89,2.04-1.39,4.28-1.39,6.65,0,9.14,7.43,16.58,16.56,16.58,2.97,0,5.75-.78,8.17-2.17.06.07.13.15.2.22l22.64,22.67c-.01.17-.01.33-.01.5,0,4.59,3.71,8.32,8.3,8.32s8.3-3.73,8.3-8.32-3.71-8.32-8.3-8.32c-.21,0-.43,0-.63.02l-22.57-22.59c-.24-.24-.49-.45-.75-.64.79-1.94,1.23-4.05,1.23-6.28,0-9.14-7.43-16.58-16.56-16.58-2.79,0-5.42.7-7.73,1.93l-11.12-11.14v-11.14c0-2.13-1.24-4.06-3.16-4.96l-16.7-7.72c10.14-11.55,16.55-27.04,17.35-43.38h8.6v21.06c0,2.15,1.25,4.09,3.2,4.98l45.85,20.81c.46.21.93.35,1.41.42-.04.41-.05.81-.05,1.22,0,4.43,1.72,8.59,4.85,11.72,3.22,3.23,7.46,4.85,11.71,4.85,2.12,0,4.24-.41,6.23-1.21,1.99-.8,3.87-2.02,5.48-3.64,3.13-3.13,4.85-7.29,4.85-11.72s-1.73-8.6-4.85-11.72c-6.46-6.47-16.97-6.47-23.42,0-.24.24-.47.49-.7.74-.31-.24-.64-.44-1.01-.61l-42.65-19.36v-17.54h58.5v15.24c0,3.02,2.44,5.46,5.46,5.46s5.46-2.44,5.46-5.46v-15.24h18.06c3.02-.02,5.44-2.48,5.42-5.5-.02-3.01-2.46-5.43-5.46-5.43ZM314.18,131.79c3.14,0,5.69,2.55,5.69,5.7s-2.55,5.7-5.69,5.7-5.69-2.55-5.69-5.7,2.55-5.7,5.69-5.7ZM295.23,54.84c3.14,0,5.69,2.55,5.69,5.7s-2.55,5.7-5.69,5.7-5.69-2.55-5.69-5.7,2.55-5.7,5.69-5.7ZM206.59,81.39c3.13,0,5.66,2.54,5.66,5.67s-2.54,5.67-5.66,5.67-5.66-2.54-5.66-5.67,2.54-5.67,5.66-5.67ZM119.96,26.76c-3.14,0-5.69-2.55-5.69-5.7s2.55-5.7,5.69-5.7,5.69,2.55,5.69,5.7-2.55,5.7-5.69,5.7ZM94.92,91.36c-3.14,0-5.69-2.55-5.69-5.7s2.55-5.7,5.69-5.7,5.69,2.55,5.69,5.7-2.55,5.7-5.69,5.7ZM20.77,243.2c-3.14,0-5.69-2.55-5.69-5.7s2.55-5.7,5.69-5.7,5.69,2.55,5.69,5.7-2.55,5.7-5.69,5.7ZM80.59,154.28c-3.14,0-5.69-2.55-5.69-5.7s2.55-5.7,5.69-5.7,5.69,2.55,5.69,5.7-2.55,5.7-5.69,5.7ZM92.28,274.86c-3.14,0-5.69-2.55-5.69-5.7s2.55-5.7,5.69-5.7,5.69,2.55,5.69,5.7-2.55,5.7-5.69,5.7ZM132.4,341.61c0,3.15-2.55,5.7-5.69,5.7s-5.69-2.55-5.69-5.7,2.55-5.7,5.69-5.7,5.69,2.55,5.69,5.7ZM271.05,270.35c3.14,0,5.69,2.55,5.69,5.7s-2.55,5.7-5.69,5.7-5.69-2.55-5.69-5.7,2.55-5.7,5.69-5.7ZM179.57,234.72c-30.1,0-54.49-24.43-54.49-54.57s24.4-54.57,54.49-54.57,54.5,24.43,54.5,54.57-24.4,54.57-54.5,54.57ZM325.25,225.84c3.14,0,5.69,2.55,5.69,5.7s-2.55,5.7-5.69,5.7-5.69-2.55-5.69-5.7,2.55-5.7,5.69-5.7Z"/>
</svg>