<?xml version="1.0" encoding="UTF-8"?>
<svg id="Layer_1" data-name="Layer 1" xmlns="http://www.w3.org/2000/svg" viewBox="0 0 73.07 72.39">
  <defs>
    <style>
      .cls-1 {
        fill: #d9d9d9;
        stroke-width: 0px;
      }
    </style>
  </defs>
  <path class="cls-1" d="M73.07,55.31c-.71-.1-1.44-.15-2.18-.15-8.76,0-15.86,7.1-15.86,15.86,0,.36.02,1.02.04,1.37h18v-17.08Z"/>
  <path class="cls-1" d="M48.31,72.39c.59,0,1.07-.48,1.07-1.08,0-.11,0-.21,0-.3,0-11.88,9.63-21.51,21.51-21.51.36,0,.71,0,1.07.03.61.03,1.12-.45,1.12-1.06V2.25c0-1.13-.82-2.13-1.95-2.24-1.28-.12-2.36.89-2.36,2.14v29.79h-6.71v-9.92c0-.57-.23-1.12-.63-1.52l-8.59-8.59c.73-1.09,1.13-2.42,1.08-3.84-.13-3.55-2.98-6.3-6.53-6.3-3.88,0-6.99,3.41-6.48,7.39.37,2.92,2.73,5.27,5.65,5.64.99.12,1.94.02,2.82-.26l8.38,8.38v11.18c0,1.19.96,2.15,2.15,2.15h8.86v7.17c-6.11.47-11.68,2.94-16.04,6.75l-9.71-12.94c.77-1.22,1.15-2.7.96-4.28-.35-2.91-2.67-5.27-5.57-5.67-3.24-.45-6.11,1.5-7.1,4.32h-8.66v-11.39c.81-.68,1.28-1.75,1.14-2.92-.18-1.46-1.37-2.65-2.83-2.83-2-.25-3.7,1.31-3.7,3.25,0,.97.42,1.84,1.09,2.44v13.6c0,1.19.96,2.15,2.15,2.15h10.82c.89,2.55,3.32,4.38,6.17,4.38.76,0,1.49-.13,2.17-.37l10.02,13.36c-3.37,4.02-5.61,9.02-6.25,14.5l-9.46.07v-3.08c2.82-.99,4.77-3.87,4.32-7.11-.4-2.87-2.72-5.17-5.59-5.55-3.22-.42-6.07,1.51-7.06,4.32h-9.37l-7.2-7.2c.03-.15.05-.31.05-.47.04-1.48-.86-2.81-2.28-3.23-2.23-.66-4.27,1-4.27,3.13,0,1.77,1.4,3.21,3.15,3.27.05.07.11.14.18.21l7.96,7.96c.4.4.95.63,1.52.63h10.27c.66,1.88,2.14,3.36,4.02,4.02v3.11l-27.52.2c-1.19,0-2.15.98-2.14,2.17.01,1.18.97,2.14,2.15,2.14h46.16ZM47.87,10.49c-1.64.36-3.07-1.06-2.7-2.7.18-.83.85-1.49,1.68-1.67,1.64-.36,3.06,1.07,2.7,2.7-.18.83-.85,1.49-1.67,1.67ZM37.99,35.96c-1.64.36-3.07-1.07-2.7-2.7.18-.83.85-1.49,1.68-1.67,1.64-.36,3.06,1.07,2.7,2.7-.18.83-.85,1.49-1.67,1.67ZM29.63,59.09c-.36-1.64,1.06-3.07,2.7-2.7.83.18,1.49.85,1.67,1.67.36,1.64-1.06,3.07-2.7,2.7-.83-.18-1.49-.85-1.67-1.68Z"/>
</svg>